<svg xmlns="http://www.w3.org/2000/svg" version="1.1" xmlns:xlink="http://www.w3.org/1999/xlink" xmlns:svgjs="http://svgjs.dev/svgjs" width="2000" height="212" viewBox="0 0 2000 212"><g transform="matrix(1,0,0,1,-1.2121212121212466,-0.5494945134997806)"><svg viewBox="0 0 396 42" data-background-color="#ffffff" preserveAspectRatio="xMidYMid meet" height="212" width="2000" xmlns="http://www.w3.org/2000/svg" xmlns:xlink="http://www.w3.org/1999/xlink"><g id="tight-bounds" transform="matrix(1,0,0,1,0.2400000000000091,0.10886212059901368)"><svg viewBox="0 0 395.52 40.990420520076" height="40.990420520076" width="395.52"><g><svg viewBox="0 0 484.05959573907705 50.16637941475212" height="40.990420520076" width="395.52"><g><rect width="3.273557067529596" height="36.48133958887545" x="404.0895211191874" y="6.842519912938336" fill="#ffffff" opacity="1" stroke-width="0" stroke="transparent" fill-opacity="1" class="rect-qz-0" data-fill-palette-color="primary" rx="1%" id="qz-0" data-palette-color="#f13024"></rect></g><g transform="matrix(1,0,0,1,0,6.933269513905685)"><svg viewBox="0 0 395.52 36.29984038694075" height="36.29984038694075" width="395.52"><g id="textblocktransform"><svg viewBox="0 0 395.52 36.29984038694075" height="36.29984038694075" width="395.52" id="textblock"><g><svg viewBox="0 0 395.52 36.29984038694075" height="36.29984038694075" width="395.52"><g transform="matrix(1,0,0,1,0,0)"><svg width="395.52" viewBox="-1.3 -37.5 413.47 37.95" height="36.29984038694075" data-palette-color="#f13024"><path d="M36.6-33.5Q38.7-33.5 40.1-32.15 41.5-30.8 41.5-28.5L41.5-28.5Q41.5-25.9 39.95-24.3 38.4-22.7 36.25-22.7L36.25-22.7Q34.85-22.7 33.85-23.2 32.85-23.7 31.95-24.8L31.95-24.8 27.65-21.2 32.5-6.85Q32.95-5.6 33.48-4.85 34-4.1 34.75-3.35L34.75-3.35Q35.3-2.8 35.52-2.48 35.75-2.15 35.75-1.7L35.75-1.7Q35.75-0.9 35.02-0.45 34.3 0 32.5 0L32.5 0 25.95 0Q23.5 0 22.33-1.07 21.15-2.15 20.4-4.65L20.4-4.65 17.9-13.05 16.45-11.85 14.8-5.9Q14.6-5.25 14.6-4.65L14.6-4.65Q14.6-4.05 14.78-3.65 14.95-3.25 15.3-2.8L15.3-2.8Q15.75-2.15 15.75-1.75L15.75-1.75Q15.75-1.65 15.65-1.25L15.65-1.25Q15.45-0.55 14.75-0.28 14.05 0 12.65 0L12.65 0 0.9 0Q-0.15 0-0.73-0.35-1.3-0.7-1.3-1.3L-1.3-1.3Q-1.3-1.6-1.15-1.95L-1.15-1.95Q-0.95-2.5-0.5-2.8-0.05-3.1 0.05-3.15L0.05-3.15Q0.85-3.65 1.35-4.17 1.85-4.7 2.2-5.9L2.2-5.9 8.3-27.45Q8.5-28.1 8.5-28.7L8.5-28.7Q8.5-29.25 8.33-29.63 8.15-30 7.85-30.5L7.85-30.5Q7.4-31.15 7.4-31.55L7.4-31.55Q7.4-31.7 7.5-32.1L7.5-32.1Q7.7-32.75 8.38-33.02 9.05-33.3 10.45-33.3L10.45-33.3 22.2-33.3Q23.25-33.3 23.83-32.98 24.4-32.65 24.4-32.05L24.4-32.05Q24.4-31.8 24.25-31.4L24.25-31.4Q24.1-31.05 23.83-30.78 23.55-30.5 23.33-30.38 23.1-30.25 23-30.15L23-30.15Q22.2-29.7 21.7-29.15 21.2-28.6 20.85-27.45L20.85-27.45 18.75-20 32-31.45Q33.3-32.55 34.35-33.02 35.4-33.5 36.6-33.5L36.6-33.5ZM58.7-26.45Q65.5-26.45 68.72-23.7 71.95-20.95 71.95-16.5L71.95-16.5Q71.95-15 71.55-13.15L71.55-13.15Q70.6-9.05 68-5.98 65.4-2.9 61.62-1.23 57.85 0.45 53.45 0.45L53.45 0.45Q46.5 0.45 43.17-2.33 39.85-5.1 39.85-9.7L39.85-9.7Q39.85-11.25 40.25-13.15L40.25-13.15Q41.2-17.05 43.87-20.08 46.55-23.1 50.42-24.78 54.3-26.45 58.7-26.45L58.7-26.45ZM58.55-22Q57.5-22 56.32-20.13 55.15-18.25 53.55-13.05L53.55-13.05Q51.95-7.85 51.95-5.75L51.95-5.75Q51.95-4.65 52.3-4.28 52.65-3.9 53.25-3.9L53.25-3.9Q54.3-3.8 55.42-5.7 56.55-7.6 58.25-13.1L58.25-13.1Q59.8-17.95 59.8-20.15L59.8-20.15Q59.8-21.2 59.47-21.6 59.15-22 58.55-22L58.55-22ZM106.15-16.75L103.1-6.9Q103-6.7 103-6.3L103-6.3Q103-5.95 103.17-5.75 103.35-5.55 103.65-5.55L103.65-5.55Q104.25-5.55 104.67-6.08 105.1-6.6 105.25-6.6L105.25-6.6Q105.5-6.6 105.65-6.28 105.8-5.95 105.8-5.5L105.8-5.5Q105.85-4.05 104.85-2.68 103.85-1.3 101.92-0.43 100 0.45 97.3 0.45L97.3 0.45Q94 0.45 92.05-1.07 90.1-2.6 90.05-5.15L90.05-5.15Q90.05-7 90.95-9.3L90.95-9.3 93.7-16.5Q93.95-17.15 93.95-17.55L93.95-17.55Q93.95-18.2 93.52-18.57 93.1-18.95 92.5-18.95L92.5-18.95Q91.4-18.95 90.4-17.93 89.4-16.9 88.95-15.4L88.95-15.4 85.85-5.2Q85.65-4.65 85.65-4.15L85.65-4.15Q85.65-3.55 85.9-3.18 86.15-2.8 86.6-2.4L86.6-2.4Q86.95-2.1 87.1-1.85 87.25-1.6 87.15-1.25L87.15-1.25Q86.95-0.6 86.2-0.3 85.45 0 83.85 0L83.85 0 72.45 0Q71.15 0 70.57-0.43 70-0.85 70.15-1.55L70.15-1.55Q70.35-2.15 71.2-2.6L71.2-2.6Q71.95-3 72.45-3.55 72.95-4.1 73.3-5.3L73.3-5.3 77.75-19.75Q77.85-20 77.85-20.45L77.85-20.45Q77.85-21 77.62-21.3 77.4-21.6 76.9-22.05L76.9-22.05Q76.4-22.45 76.2-22.75 76-23.05 76.15-23.55L76.15-23.55Q76.45-24.7 79.3-25.58 82.15-26.45 85.25-26.45L85.25-26.45Q87.75-26.45 89.2-25.08 90.65-23.7 90.5-21.25L90.5-21.25Q92.55-24.2 94.85-25.33 97.15-26.45 99.85-26.45L99.85-26.45Q102.9-26.45 104.77-24.6 106.65-22.75 106.65-19.8L106.65-19.8Q106.65-18.25 106.15-16.75L106.15-16.75ZM132.49-26.45Q135.29-26.45 136.97-24.75 138.64-23.05 138.64-20.55L138.64-20.55Q138.64-19.6 138.44-18.8L138.44-18.8Q137.94-16.75 136.54-15.65 135.14-14.55 133.19-14.55L133.19-14.55Q131.29-14.55 130.32-15.45 129.34-16.35 128.59-17.85L128.59-17.85Q128.19-18.7 127.84-19.1 127.49-19.5 127.04-19.5L127.04-19.5Q126.54-19.5 126.17-19.1 125.79-18.7 125.49-17.7L125.49-17.7 121.64-5.2Q121.54-4.95 121.54-4.45L121.54-4.45Q121.54-3.8 121.92-3.38 122.29-2.95 122.94-2.55L122.94-2.55Q123.54-2.15 123.74-1.9 123.94-1.65 123.89-1.25L123.89-1.25Q123.79-0.6 123.17-0.3 122.54 0 121.04 0L121.04 0 108.24 0Q106.94 0 106.37-0.43 105.79-0.85 105.94-1.55L105.94-1.55Q106.14-2.15 106.99-2.6L106.99-2.6Q107.74-3 108.24-3.55 108.74-4.1 109.09-5.3L109.09-5.3 113.54-19.75Q113.64-20 113.64-20.45L113.64-20.45Q113.64-21 113.42-21.3 113.19-21.6 112.69-22.05L112.69-22.05Q112.19-22.45 111.99-22.75 111.79-23.05 111.94-23.55L111.94-23.55Q112.24-24.7 115.09-25.58 117.94-26.45 121.04-26.45L121.04-26.45Q123.09-26.45 124.44-25.53 125.79-24.6 126.19-22.9L126.19-22.9Q128.59-26.45 132.49-26.45L132.49-26.45ZM153.74-26.45Q159.49-26.45 162.94-24.33 166.39-22.2 166.39-17.85L166.39-17.85Q166.39-16.2 165.79-14.1L165.79-14.1 163.74-7.2Q163.69-7 163.69-6.7L163.69-6.7Q163.69-5.9 164.34-5.9L164.34-5.9Q164.94-5.9 165.37-6.43 165.79-6.95 165.94-6.95L165.94-6.95Q166.19-6.95 166.37-6.6 166.54-6.25 166.54-5.8L166.54-5.8Q166.59-4.45 165.52-3.05 164.44-1.65 162.64-0.75 160.84 0.15 158.69 0.15L158.69 0.15Q156.09 0.15 154.24-0.8 152.39-1.75 151.69-3.6L151.69-3.6Q150.19-1.8 148.14-0.83 146.09 0.15 143.74 0.15L143.74 0.15Q141.09 0.15 139.29-0.88 137.49-1.9 136.62-3.53 135.74-5.15 135.74-6.95L135.74-6.95Q135.74-7.75 135.89-8.5L135.89-8.5Q136.69-11.95 139.37-13.7 142.04-15.45 145.74-15.45L145.74-15.45Q149.89-15.45 153.89-14.15L153.89-14.15 155.14-17.45Q155.79-19.55 155.79-20.7L155.79-20.7Q155.74-21.9 154.99-22.5 154.24-23.1 152.69-23.1L152.69-23.1Q152.99-22.3 152.99-21.45L152.99-21.45Q152.99-19.6 151.59-18.25 150.19-16.9 147.59-16.9L147.59-16.9Q145.14-16.9 143.77-17.98 142.39-19.05 142.39-20.65L142.39-20.65Q142.39-23.15 145.19-24.8 147.99-26.45 153.74-26.45L153.74-26.45ZM150.94-11.3Q149.54-11.3 148.67-10.23 147.79-9.15 147.79-7.9L147.79-7.9Q147.79-7.1 148.17-6.6 148.54-6.1 149.24-6.1L149.24-6.1Q149.89-6.1 150.67-6.63 151.44-7.15 151.79-8.2L151.79-8.2 152.84-11.15Q151.99-11.3 150.94-11.3L150.94-11.3ZM195.04-7.2Q194.94-6.8 194.94-6.65L194.94-6.65Q194.94-6.3 195.14-6.1 195.34-5.9 195.64-5.9L195.64-5.9Q196.24-5.9 196.66-6.43 197.09-6.95 197.24-6.95L197.24-6.95Q197.49-6.95 197.64-6.6 197.79-6.25 197.79-5.8L197.79-5.8Q197.84-4.45 196.76-3.05 195.69-1.65 193.89-0.75 192.09 0.15 189.99 0.15L189.99 0.15Q187.49 0.15 185.64-0.8 183.79-1.75 183.09-3.3L183.09-3.3Q181.74-1.55 179.99-0.7 178.24 0.15 176.29 0.15L176.29 0.15Q173.99 0.15 172.01-1 170.04-2.15 168.86-4.28 167.69-6.4 167.69-9.1L167.69-9.1Q167.69-13.65 169.41-17.68 171.14-21.7 174.24-24.18 177.34-26.65 181.29-26.65L181.29-26.65Q183.44-26.65 184.96-26.15 186.49-25.65 187.74-24.65L187.74-24.65 189.44-30.25Q189.59-30.7 189.59-31L189.59-31Q189.59-31.55 189.31-31.9 189.04-32.25 188.59-32.6L188.59-32.6Q188.09-33 187.86-33.3 187.64-33.6 187.79-34.1L187.79-34.1Q188.09-35.25 190.94-36.1 193.79-36.95 196.89-36.95L196.89-36.95Q199.79-36.95 201.16-35.85 202.54-34.75 202.54-32.85L202.54-32.85Q202.54-31.75 202.19-30.7L202.19-30.7 195.04-7.2ZM186.69-21.25Q185.89-21.95 184.94-21.95L184.94-21.95Q183.49-21.95 182.09-19.8 180.69-17.65 179.84-14.6 178.99-11.55 179.04-9.1L179.04-9.1Q179.04-6.35 180.84-6.35L180.84-6.35Q181.49-6.35 181.94-6.88 182.39-7.4 182.79-8.6L182.79-8.6 186.69-21.25ZM224.63 0.3Q221.28 0.3 218.56-1.18 215.83-2.65 214.23-5.53 212.63-8.4 212.63-12.4L212.63-12.4Q212.63-15.45 213.68-19.2L213.68-19.2Q215.98-27.2 220.91-30.5 225.83-33.8 231.43-33.8L231.43-33.8Q236.53-33.8 240.63-30.1L240.63-30.1 242.13-31.55Q243.38-32.6 244.28-33 245.18-33.4 246.38-33.4L246.38-33.4Q247.68-33.4 248.48-32.77 249.28-32.15 249.28-31.1L249.28-31.1Q249.28-30.7 249.13-30.15L249.13-30.15 247.33-23.85Q246.83-22.25 246.16-21.6 245.48-20.95 244.33-20.95L244.33-20.95Q243.13-20.95 242.21-21.55 241.28-22.15 240.08-23.7L240.08-23.7Q238.48-25.8 237.26-26.68 236.03-27.55 234.58-27.55L234.58-27.55Q232.33-27.55 230.31-25.28 228.28-23 226.78-17.7L226.78-17.7Q225.83-14.25 225.83-11.75L225.83-11.75Q225.83-9.1 226.86-7.73 227.88-6.35 229.73-6.35L229.73-6.35Q231.33-6.35 232.21-7.1 233.08-7.85 233.58-9.7L233.58-9.7 233.93-10.95Q234.18-11.95 234.18-12.3L234.18-12.3Q234.18-12.9 233.91-13.15 233.63-13.4 232.98-13.7L232.98-13.7 231.23-14.35Q230.08-14.8 230.08-16L230.08-16Q230.08-16.35 230.13-16.55L230.13-16.55Q230.33-17.2 230.86-17.5 231.38-17.8 232.48-17.8L232.48-17.8 247.58-17.75Q249.23-17.75 249.23-16.7L249.23-16.7Q249.23-16.5 249.13-16.1L249.13-16.1Q248.93-15.35 248.48-14.9 248.03-14.45 247.18-14L247.18-14 245.88-13.25Q245.38-12.95 245.13-12.68 244.88-12.4 244.78-12L244.78-12 242.13-2.75Q241.63-1.1 241.01-0.55 240.38 0 239.48 0L239.48 0 237.38 0Q236.18 0 235.41-0.5 234.63-1 234.13-2.45L234.13-2.45 233.63-3.9Q230.03 0.3 224.63 0.3L224.63 0.3ZM281.43-20.15L277.38-6.9Q277.28-6.5 277.28-6.3L277.28-6.3Q277.28-5.95 277.46-5.75 277.63-5.55 277.93-5.55L277.93-5.55Q278.53-5.55 278.96-6.08 279.38-6.6 279.53-6.6L279.53-6.6Q279.78-6.6 279.96-6.28 280.13-5.95 280.13-5.5L280.13-5.5Q280.18-4.1 279.13-2.73 278.08-1.35 276.18-0.45 274.28 0.45 271.93 0.45L271.93 0.45Q268.98 0.45 267.23-0.75 265.48-1.95 264.98-3.9L264.98-3.9Q263.18-1.9 261.01-0.88 258.83 0.15 256.58 0.15L256.58 0.15Q253.08 0.15 250.71-1.58 248.33-3.3 248.33-6.4L248.33-6.4Q248.33-7.8 248.83-9.3L248.83-9.3 252.03-19.75Q252.18-20.2 252.18-20.5L252.18-20.5Q252.18-21.05 251.93-21.38 251.68-21.7 251.18-22.05L251.18-22.05Q250.68-22.45 250.48-22.75 250.28-23.05 250.43-23.55L250.43-23.55Q250.73-24.7 253.58-25.58 256.43-26.45 259.53-26.45L259.53-26.45Q262.43-26.45 263.78-25.35 265.13-24.25 265.13-22.35L265.13-22.35Q265.13-21.2 264.78-20.15L264.78-20.15 261.63-9.75Q261.43-9.2 261.43-8.7L261.43-8.7Q261.43-8 261.83-7.65 262.23-7.3 262.88-7.3L262.88-7.3Q263.83-7.3 264.43-7.85 265.03-8.4 265.63-9.7L265.63-9.7 268.68-19.75Q268.83-20.2 268.83-20.5L268.83-20.5Q268.83-21.05 268.58-21.38 268.33-21.7 267.88-22.05L267.88-22.05Q267.38-22.45 267.18-22.75 266.98-23.05 267.13-23.55L267.13-23.55Q267.38-24.7 270.23-25.58 273.08-26.45 276.18-26.45L276.18-26.45Q279.08-26.45 280.46-25.35 281.83-24.25 281.83-22.4L281.83-22.4Q281.83-21.45 281.43-20.15L281.43-20.15ZM306.53-26.45Q309.33-26.45 311-24.75 312.68-23.05 312.68-20.55L312.68-20.55Q312.68-19.6 312.48-18.8L312.48-18.8Q311.98-16.75 310.58-15.65 309.18-14.55 307.23-14.55L307.23-14.55Q305.33-14.55 304.35-15.45 303.38-16.35 302.63-17.85L302.63-17.85Q302.23-18.7 301.88-19.1 301.53-19.5 301.08-19.5L301.08-19.5Q300.58-19.5 300.2-19.1 299.83-18.7 299.53-17.7L299.53-17.7 295.68-5.2Q295.58-4.95 295.58-4.45L295.58-4.45Q295.58-3.8 295.95-3.38 296.33-2.95 296.98-2.55L296.98-2.55Q297.58-2.15 297.78-1.9 297.98-1.65 297.93-1.25L297.93-1.25Q297.83-0.6 297.2-0.3 296.58 0 295.08 0L295.08 0 282.28 0Q280.98 0 280.4-0.43 279.83-0.85 279.98-1.55L279.98-1.55Q280.18-2.15 281.03-2.6L281.03-2.6Q281.78-3 282.28-3.55 282.78-4.1 283.13-5.3L283.13-5.3 287.58-19.75Q287.68-20 287.68-20.45L287.68-20.45Q287.68-21 287.45-21.3 287.23-21.6 286.73-22.05L286.73-22.05Q286.23-22.45 286.03-22.75 285.83-23.05 285.98-23.55L285.98-23.55Q286.28-24.7 289.13-25.58 291.98-26.45 295.08-26.45L295.08-26.45Q297.13-26.45 298.48-25.53 299.83-24.6 300.23-22.9L300.23-22.9Q302.63-26.45 306.53-26.45L306.53-26.45ZM335.93-26.65Q339.63-26.65 341.85-24 344.07-21.35 344.07-17L344.07-17Q344.07-14.75 343.53-12.6L343.53-12.6Q341.93-6.15 338.05-2.85 334.18 0.45 329.13 0.45L329.13 0.45Q326.28 0.45 324.2-0.53 322.13-1.5 320.88-3.3L320.88-3.3 319.07-1.75Q318.03-0.85 317.03-0.43 316.03 0 314.73 0L314.73 0 312.53 0Q311.28 0 310.6-0.53 309.93-1.05 309.93-2.05L309.93-2.05Q309.93-2.5 310.07-3.1L310.07-3.1 318.43-30.25Q318.57-30.7 318.57-31L318.57-31Q318.57-31.85 317.53-32.6L317.53-32.6Q317.03-33.05 316.82-33.33 316.63-33.6 316.78-34.05L316.78-34.05Q317.13-35.2 319.95-36.08 322.78-36.95 325.88-36.95L325.88-36.95Q328.78-36.95 330.15-35.83 331.53-34.7 331.53-32.8L331.53-32.8Q331.53-31.75 331.18-30.7L331.18-30.7 329.07-23.9Q331.98-26.65 335.93-26.65L335.93-26.65ZM330.28-12.9Q331.28-16.3 331.28-18.4L331.28-18.4Q331.28-20.7 329.93-20.7L329.93-20.7Q328.73-20.7 327.68-19.45L327.68-19.45 324.43-8.85 324.13-7.9 324.13-7.9Q323.88-7.15 323.88-6.35L323.88-6.35Q323.88-4.6 325.53-4.6L325.53-4.6Q326.73-4.6 327.82-6.35 328.93-8.1 330.28-12.9L330.28-12.9ZM357.27-26.45Q360.17-26.45 361.52-25.35 362.87-24.25 362.87-22.35L362.87-22.35Q362.87-21.2 362.52-20.15L362.52-20.15 357.92-5.2Q357.77-4.6 357.77-4.15L357.77-4.15Q357.77-3.5 358.02-3.13 358.27-2.75 358.72-2.4L358.72-2.4Q359.07-2.05 359.22-1.83 359.37-1.6 359.27-1.25L359.27-1.25Q359.02-0.6 358.27-0.3 357.52 0 355.97 0L355.97 0 344.57 0Q343.27 0 342.67-0.43 342.07-0.85 342.27-1.55L342.27-1.55Q342.47-2.15 343.32-2.6L343.32-2.6Q344.07-3 344.57-3.55 345.07-4.1 345.42-5.3L345.42-5.3 349.77-19.75Q349.92-20.2 349.92-20.5L349.92-20.5Q349.92-21.05 349.67-21.38 349.42-21.7 348.92-22.05L348.92-22.05Q348.42-22.45 348.22-22.75 348.02-23.05 348.17-23.55L348.17-23.55Q348.47-24.7 351.32-25.58 354.17-26.45 357.27-26.45L357.27-26.45ZM360.62-37.5Q362.57-37.5 363.87-36.23 365.17-34.95 365.17-33.1L365.17-33.1Q365.17-31.8 364.5-30.55 363.82-29.3 362.6-28.53 361.37-27.75 359.87-27.75L359.87-27.75Q357.97-27.75 356.7-29.03 355.42-30.3 355.37-32.2L355.37-32.2Q355.37-33.45 356.02-34.68 356.67-35.9 357.87-36.7 359.07-37.5 360.62-37.5L360.62-37.5ZM379.52-26.7Q385.87-26.7 388.72-24.68 391.57-22.65 391.57-19.5L391.57-19.5Q391.57-18.55 391.37-17.75L391.37-17.75Q390.62-14.45 387.2-13.03 383.77-11.6 379.12-11.6L379.12-11.6Q376.77-11.6 374.72-11.9L374.72-11.9Q374.67-9.3 376.12-8.25 377.57-7.2 380.17-7.2L380.17-7.2Q381.37-7.2 382.47-7.48 383.57-7.75 385.27-8.3L385.27-8.3Q386.67-8.8 387.17-8.8L387.17-8.8Q387.72-8.8 387.72-8.15L387.72-8.15Q387.77-6.4 386.42-4.48 385.07-2.55 382.42-1.2 379.77 0.15 376.02 0.15L376.02 0.15Q370.47 0.15 366.92-2.65 363.37-5.45 363.37-10.8L363.37-10.8Q363.37-12.3 363.77-14.3L363.77-14.3Q365.02-20.45 369.25-23.58 373.47-26.7 379.52-26.7L379.52-26.7ZM375.07-14.9Q375.27-14.85 375.62-14.85L375.62-14.85Q377.72-14.85 378.82-16.8 379.92-18.75 379.87-21.15L379.87-21.15Q379.82-22.55 379.07-22.55L379.07-22.55Q378.52-22.55 377.77-21.68 377.02-20.8 376.3-19.05 375.57-17.3 375.07-14.9L375.07-14.9ZM406.52-36.95Q409.42-36.95 410.79-35.85 412.17-34.75 412.17-32.85L412.17-32.85Q412.17-31.75 411.82-30.7L411.82-30.7 403.97-5.2Q403.82-4.6 403.82-4.15L403.82-4.15Q403.82-3.5 404.07-3.13 404.32-2.75 404.77-2.4L404.77-2.4Q405.12-2.05 405.27-1.83 405.42-1.6 405.32-1.25L405.32-1.25Q405.07-0.6 404.32-0.3 403.57 0 402.02 0L402.02 0 390.62 0Q389.32 0 388.72-0.43 388.12-0.85 388.32-1.55L388.32-1.55Q388.52-2.15 389.37-2.6L389.37-2.6Q390.12-3 390.62-3.55 391.12-4.1 391.47-5.3L391.47-5.3 399.07-30.25Q399.22-30.7 399.22-31L399.22-31Q399.22-31.55 398.94-31.9 398.67-32.25 398.22-32.6L398.22-32.6Q397.72-33 397.49-33.3 397.27-33.6 397.42-34.1L397.42-34.1Q397.72-35.25 400.57-36.1 403.42-36.95 406.52-36.95L406.52-36.95Z" opacity="1" transform="matrix(1,0,0,1,0,0)" fill="#ffffff" class="wordmark-text-0" data-fill-palette-color="primary" id="text-0"></path></svg></g></svg></g></svg></g></svg></g><g transform="matrix(1,0,0,1,415.93259930590443,0)"><svg viewBox="0 0 68.12699643317264 50.16637941475212" height="50.16637941475212" width="68.12699643317264"><g><svg xmlns="http://www.w3.org/2000/svg" viewBox="4 10 56 41.23647590983765" x="0" y="0" height="50.16637941475212" width="68.12699643317264" class="icon-icon-0" data-fill-palette-color="accent" id="icon-0"><path d="M40 20a10 10 0 0 0-20 0 1 1 0 0 0 2 0 8 8 0 1 1 8 8H5a1 1 0 0 0 0 2H30A10 10 0 0 0 40 20Z" fill="#ffffff" data-fill-palette-color="accent"></path><path d="M51 17a9 9 0 0 0-9 9 1 1 0 0 0 2 0 7 7 0 1 1 7 7H13a1 1 0 0 0 0 2H51a9 9 0 0 0 0-18Z" fill="#ffffff" data-fill-palette-color="accent"></path><path d="M20 44H15.73l2.13-3.7a1 1 0 0 0-1.73-1L14 43l-2.13-3.7a1 1 0 1 0-1.73 1L12.27 44H8a1 1 0 0 0 0 2h4.27l-2.13 3.7a1 1 0 0 0 1.73 1L14 47l2.13 3.7a1 1 0 0 0 1.73-1L15.73 46H20a1 1 0 0 0 0-2Z" fill="#ffffff" data-fill-palette-color="accent"></path><path d="M38 44H33.73l2.13-3.7a1 1 0 1 0-1.73-1L32 43l-2.13-3.7a1 1 0 0 0-1.73 1L30.27 44H26a1 1 0 0 0 0 2h4.27l-2.13 3.7a1 1 0 0 0 1.73 1L32 47l2.13 3.7a1 1 0 1 0 1.73-1L33.73 46H38a1 1 0 0 0 0-2Z" fill="#ffffff" data-fill-palette-color="accent"></path><path d="M56 44H51.73l2.13-3.7a1 1 0 1 0-1.73-1L50 43l-2.13-3.7a1 1 0 1 0-1.73 1L48.27 44H44a1 1 0 0 0 0 2h4.27l-2.13 3.7a1 1 0 0 0 1.73 1L50 47l2.13 3.7a1 1 0 1 0 1.73-1L51.73 46H56a1 1 0 0 0 0-2Z" fill="#ffffff" data-fill-palette-color="accent"></path></svg></g></svg></g></svg></g><defs></defs></svg><rect width="395.52" height="40.990420520076" fill="none" stroke="none" visibility="hidden"></rect></g></svg></g></svg>